# This file uses centimeters as units for non-parametric coordinates.

mtllib octTest.mtl
g default
v -0.500000 -0.500000 0.500000
v 0.500000 -0.500000 0.500000
v -0.500000 0.500000 0.500000
v 0.500000 0.500000 0.500000
v -0.500000 0.500000 -0.500000
v 0.500000 0.500000 -0.500000
v -0.500000 -0.500000 -0.500000
v 0.500000 -0.500000 -0.500000
v 0.000000 0.500000 0.500000
v 0.000000 0.500000 -0.500000
v 0.000000 -0.500000 -0.500000
v 0.000000 -0.500000 0.500000
v -0.500000 0.500000 0.000000
v -0.500000 -0.500000 0.000000
v 0.000000 -0.500000 0.000000
v 0.500000 -0.500000 0.000000
v 0.500000 0.500000 0.000000
v 0.000000 0.500000 0.000000
v 0.500000 0.000000 -0.500000
v 0.000000 0.000000 -0.500000
v -0.500000 0.000000 -0.500000
v -0.500000 0.000000 0.000000
v -0.500000 0.000000 0.500000
v 0.000000 0.000000 0.500000
v 0.500000 0.000000 0.500000
v 0.500000 0.000000 0.000000
vt 0.375000 0.000000
vt 0.625000 0.000000
vt 0.375000 0.250000
vt 0.625000 0.250000
vt 0.375000 0.500000
vt 0.625000 0.500000
vt 0.375000 0.750000
vt 0.625000 0.750000
vt 0.375000 1.000000
vt 0.625000 1.000000
vt 0.875000 0.000000
vt 0.875000 0.250000
vt 0.125000 0.000000
vt 0.125000 0.250000
vt 0.500000 0.250000
vt 0.500000 0.500000
vt 0.500000 0.750000
vt 0.500000 0.000000
vt 0.500000 1.000000
vt 0.250000 0.250000
vt 0.375000 0.375000
vt 0.250000 0.000000
vt 0.375000 0.875000
vt 0.500000 0.875000
vt 0.625000 0.875000
vt 0.750000 0.000000
vt 0.625000 0.375000
vt 0.750000 0.250000
vt 0.500000 0.375000
vt 0.625000 0.625000
vt 0.875000 0.125000
vt 0.500000 0.625000
vt 0.125000 0.125000
vt 0.375000 0.625000
vt 0.250000 0.125000
vt 0.375000 0.125000
vt 0.500000 0.125000
vt 0.625000 0.125000
vt 0.750000 0.125000
vn 0.000000 0.000000 1.000000
vn 0.000000 0.000000 1.000000
vn 0.000000 0.000000 1.000000
vn 0.000000 0.000000 1.000000
vn 0.000000 1.000000 0.000000
vn 0.000000 1.000000 0.000000
vn 0.000000 1.000000 0.000000
vn 0.000000 1.000000 0.000000
vn 0.000000 0.000000 -1.000000
vn 0.000000 0.000000 -1.000000
vn 0.000000 0.000000 -1.000000
vn 0.000000 0.000000 -1.000000
vn 0.000000 -1.000000 0.000000
vn 0.000000 -1.000000 0.000000
vn 0.000000 -1.000000 0.000000
vn 0.000000 -1.000000 0.000000
vn 1.000000 0.000000 0.000000
vn 1.000000 0.000000 0.000000
vn 1.000000 0.000000 0.000000
vn 1.000000 0.000000 0.000000
vn -1.000000 0.000000 0.000000
vn -1.000000 0.000000 0.000000
vn -1.000000 0.000000 0.000000
vn -1.000000 0.000000 0.000000
vn 0.000000 1.000000 0.000000
vn 0.000000 1.000000 0.000000
vn 0.000000 0.000000 -1.000000
vn 0.000000 0.000000 -1.000000
vn 0.000000 -1.000000 0.000000
vn 0.000000 -1.000000 0.000000
vn 0.000000 0.000000 1.000000
vn 0.000000 0.000000 1.000000
vn -1.000000 0.000000 0.000000
vn -1.000000 0.000000 0.000000
vn 0.000000 -1.000000 0.000000
vn 0.000000 -1.000000 0.000000
vn 0.000000 -1.000000 0.000000
vn 1.000000 0.000000 0.000000
vn 1.000000 0.000000 0.000000
vn 0.000000 1.000000 0.000000
vn 0.000000 1.000000 0.000000
vn 0.000000 1.000000 0.000000
vn 0.000000 0.000000 -1.000000
vn 0.000000 0.000000 -1.000000
vn 0.000000 0.000000 -1.000000
vn -1.000000 0.000000 0.000000
vn -1.000000 0.000000 0.000000
vn -1.000000 0.000000 0.000000
vn 0.000000 0.000000 1.000000
vn 0.000000 0.000000 1.000000
vn 0.000000 0.000000 1.000000
vn 1.000000 0.000000 0.000000
vn 1.000000 0.000000 0.000000
vn 1.000000 0.000000 0.000000
s 1
g pCube1
usemtl initialShadingGroup
f 23/36/1 24/37/2 9/15/3 3/3/4
s 2
f 3/3/5 9/15/6 18/29/7 13/21/8
s 3
f 5/5/9 10/16/10 20/32/11 21/34/12
s 4
f 14/23/13 15/24/14 12/19/15 1/9/16
s 5
f 25/38/17 26/39/18 17/28/19 4/4/20
s 6
f 22/35/21 23/36/22 3/3/23 13/20/24
s 2
f 9/15/6 4/4/25 17/27/26 18/29/7
s 3
f 20/32/11 10/16/10 6/6/27 19/30/28
s 4
f 12/19/15 15/24/14 16/25/29 2/10/30
s 1
f 9/15/3 24/37/2 25/38/31 4/4/32
s 6
f 21/33/33 22/35/21 13/20/24 5/14/34
s 4
f 7/7/35 11/17/36 15/24/14 14/23/13
f 16/25/29 15/24/14 11/17/36 8/8/37
s 5
f 17/28/19 26/39/18 19/31/38 6/12/39
s 2
f 18/29/7 17/27/26 6/6/40 10/16/41
f 13/21/8 18/29/7 10/16/41 5/5/42
s 3
f 11/17/43 20/32/11 19/30/28 8/8/44
f 21/34/12 20/32/11 11/17/43 7/7/45
s 6
f 7/13/46 14/22/47 22/35/21 21/33/33
f 14/22/47 1/1/48 23/36/22 22/35/21
s 1
f 1/1/49 12/18/50 24/37/2 23/36/1
f 25/38/31 24/37/2 12/18/50 2/2/51
s 5
f 2/2/52 16/26/53 26/39/18 25/38/17
f 19/31/38 26/39/18 16/26/53 8/11/54
g default
v 0.079927 -0.414328 -0.090021
v 0.408071 -0.414328 -0.090021
v 0.079927 -0.086184 -0.090021
v 0.408071 -0.086184 -0.090021
v 0.079927 -0.086184 -0.418165
v 0.408071 -0.086184 -0.418165
v 0.079927 -0.414328 -0.418165
v 0.408071 -0.414328 -0.418165
vt 0.375000 0.000000
vt 0.625000 0.000000
vt 0.375000 0.250000
vt 0.625000 0.250000
vt 0.375000 0.500000
vt 0.625000 0.500000
vt 0.375000 0.750000
vt 0.625000 0.750000
vt 0.375000 1.000000
vt 0.625000 1.000000
vt 0.875000 0.000000
vt 0.875000 0.250000
vt 0.125000 0.000000
vt 0.125000 0.250000
vn 0.000000 0.000000 1.000000
vn 0.000000 0.000000 1.000000
vn 0.000000 0.000000 1.000000
vn 0.000000 0.000000 1.000000
vn 0.000000 1.000000 0.000000
vn 0.000000 1.000000 0.000000
vn 0.000000 1.000000 0.000000
vn 0.000000 1.000000 0.000000
vn 0.000000 0.000000 -1.000000
vn 0.000000 0.000000 -1.000000
vn 0.000000 0.000000 -1.000000
vn 0.000000 0.000000 -1.000000
vn 0.000000 -1.000000 0.000000
vn 0.000000 -1.000000 0.000000
vn 0.000000 -1.000000 0.000000
vn 0.000000 -1.000000 0.000000
vn 1.000000 0.000000 0.000000
vn 1.000000 0.000000 0.000000
vn 1.000000 0.000000 0.000000
vn 1.000000 0.000000 0.000000
vn -1.000000 0.000000 0.000000
vn -1.000000 0.000000 0.000000
vn -1.000000 0.000000 0.000000
vn -1.000000 0.000000 0.000000
s off
g pCube3
usemtl initialShadingGroup
f 27/40/55 28/41/56 30/43/57 29/42/58
f 29/42/59 30/43/60 32/45/61 31/44/62
f 31/44/63 32/45/64 34/47/65 33/46/66
f 33/46/67 34/47/68 28/49/69 27/48/70
f 28/41/71 34/50/72 32/51/73 30/43/74
f 33/52/75 27/40/76 29/42/77 31/53/78
g default
v -0.395558 -0.414328 0.418165
v -0.067414 -0.414328 0.418165
v -0.395558 -0.086184 0.418165
v -0.067414 -0.086184 0.418165
v -0.395558 -0.086184 0.090021
v -0.067414 -0.086184 0.090021
v -0.395558 -0.414328 0.090021
v -0.067414 -0.414328 0.090021
vt 0.375000 0.000000
vt 0.625000 0.000000
vt 0.375000 0.250000
vt 0.625000 0.250000
vt 0.375000 0.500000
vt 0.625000 0.500000
vt 0.375000 0.750000
vt 0.625000 0.750000
vt 0.375000 1.000000
vt 0.625000 1.000000
vt 0.875000 0.000000
vt 0.875000 0.250000
vt 0.125000 0.000000
vt 0.125000 0.250000
vn 0.000000 0.000000 1.000000
vn 0.000000 0.000000 1.000000
vn 0.000000 0.000000 1.000000
vn 0.000000 0.000000 1.000000
vn 0.000000 1.000000 0.000000
vn 0.000000 1.000000 0.000000
vn 0.000000 1.000000 0.000000
vn 0.000000 1.000000 0.000000
vn 0.000000 0.000000 -1.000000
vn 0.000000 0.000000 -1.000000
vn 0.000000 0.000000 -1.000000
vn 0.000000 0.000000 -1.000000
vn 0.000000 -1.000000 0.000000
vn 0.000000 -1.000000 0.000000
vn 0.000000 -1.000000 0.000000
vn 0.000000 -1.000000 0.000000
vn 1.000000 0.000000 0.000000
vn 1.000000 0.000000 0.000000
vn 1.000000 0.000000 0.000000
vn 1.000000 0.000000 0.000000
vn -1.000000 0.000000 0.000000
vn -1.000000 0.000000 0.000000
vn -1.000000 0.000000 0.000000
vn -1.000000 0.000000 0.000000
s off
g pCube4
usemtl initialShadingGroup
f 35/54/79 36/55/80 38/57/81 37/56/82
f 37/56/83 38/57/84 40/59/85 39/58/86
f 39/58/87 40/59/88 42/61/89 41/60/90
f 41/60/91 42/61/92 36/63/93 35/62/94
f 36/55/95 42/64/96 40/65/97 38/57/98
f 41/66/99 35/54/100 37/56/101 39/67/102
g default
v 0.079927 0.086184 -0.090021
v 0.408071 0.086184 -0.090021
v 0.079927 0.414328 -0.090021
v 0.408071 0.414328 -0.090021
v 0.079927 0.414328 -0.418165
v 0.408071 0.414328 -0.418165
v 0.079927 0.086184 -0.418165
v 0.408071 0.086184 -0.418165
vt 0.375000 0.000000
vt 0.625000 0.000000
vt 0.375000 0.250000
vt 0.625000 0.250000
vt 0.375000 0.500000
vt 0.625000 0.500000
vt 0.375000 0.750000
vt 0.625000 0.750000
vt 0.375000 1.000000
vt 0.625000 1.000000
vt 0.875000 0.000000
vt 0.875000 0.250000
vt 0.125000 0.000000
vt 0.125000 0.250000
vn 0.000000 0.000000 1.000000
vn 0.000000 0.000000 1.000000
vn 0.000000 0.000000 1.000000
vn 0.000000 0.000000 1.000000
vn 0.000000 1.000000 0.000000
vn 0.000000 1.000000 0.000000
vn 0.000000 1.000000 0.000000
vn 0.000000 1.000000 0.000000
vn 0.000000 0.000000 -1.000000
vn 0.000000 0.000000 -1.000000
vn 0.000000 0.000000 -1.000000
vn 0.000000 0.000000 -1.000000
vn 0.000000 -1.000000 0.000000
vn 0.000000 -1.000000 0.000000
vn 0.000000 -1.000000 0.000000
vn 0.000000 -1.000000 0.000000
vn 1.000000 0.000000 0.000000
vn 1.000000 0.000000 0.000000
vn 1.000000 0.000000 0.000000
vn 1.000000 0.000000 0.000000
vn -1.000000 0.000000 0.000000
vn -1.000000 0.000000 0.000000
vn -1.000000 0.000000 0.000000
vn -1.000000 0.000000 0.000000
s off
g pCube2
usemtl initialShadingGroup
f 43/68/103 44/69/104 46/71/105 45/70/106
f 45/70/107 46/71/108 48/73/109 47/72/110
f 47/72/111 48/73/112 50/75/113 49/74/114
f 49/74/115 50/75/116 44/77/117 43/76/118
f 44/69/119 50/78/120 48/79/121 46/71/122
f 49/80/123 43/68/124 45/70/125 47/81/126
g default
v -0.399882 0.093500 -0.090021
v -0.071738 0.093500 -0.090021
v -0.399882 0.421644 -0.090021
v -0.071738 0.421644 -0.090021
v -0.399882 0.421644 -0.418165
v -0.071738 0.421644 -0.418165
v -0.399882 0.093500 -0.418165
v -0.071738 0.093500 -0.418165
vt 0.375000 0.000000
vt 0.625000 0.000000
vt 0.375000 0.250000
vt 0.625000 0.250000
vt 0.375000 0.500000
vt 0.625000 0.500000
vt 0.375000 0.750000
vt 0.625000 0.750000
vt 0.375000 1.000000
vt 0.625000 1.000000
vt 0.875000 0.000000
vt 0.875000 0.250000
vt 0.125000 0.000000
vt 0.125000 0.250000
vn 0.000000 0.000000 1.000000
vn 0.000000 0.000000 1.000000
vn 0.000000 0.000000 1.000000
vn 0.000000 0.000000 1.000000
vn 0.000000 1.000000 0.000000
vn 0.000000 1.000000 0.000000
vn 0.000000 1.000000 0.000000
vn 0.000000 1.000000 0.000000
vn 0.000000 0.000000 -1.000000
vn 0.000000 0.000000 -1.000000
vn 0.000000 0.000000 -1.000000
vn 0.000000 0.000000 -1.000000
vn 0.000000 -1.000000 0.000000
vn 0.000000 -1.000000 0.000000
vn 0.000000 -1.000000 0.000000
vn 0.000000 -1.000000 0.000000
vn 1.000000 0.000000 0.000000
vn 1.000000 0.000000 0.000000
vn 1.000000 0.000000 0.000000
vn 1.000000 0.000000 0.000000
vn -1.000000 0.000000 0.000000
vn -1.000000 0.000000 0.000000
vn -1.000000 0.000000 0.000000
vn -1.000000 0.000000 0.000000
s off
g pCube9
usemtl initialShadingGroup
f 51/82/127 52/83/128 54/85/129 53/84/130
f 53/84/131 54/85/132 56/87/133 55/86/134
f 55/86/135 56/87/136 58/89/137 57/88/138
f 57/88/139 58/89/140 52/91/141 51/90/142
f 52/83/143 58/92/144 56/93/145 54/85/146
f 57/94/147 51/82/148 53/84/149 55/95/150
g default
v 0.079927 0.086184 0.435325
v 0.408071 0.086184 0.435325
v 0.079927 0.414328 0.435325
v 0.408071 0.414328 0.435325
v 0.079927 0.414328 0.107181
v 0.408071 0.414328 0.107181
v 0.079927 0.086184 0.107181
v 0.408071 0.086184 0.107181
vt 0.375000 0.000000
vt 0.625000 0.000000
vt 0.375000 0.250000
vt 0.625000 0.250000
vt 0.375000 0.500000
vt 0.625000 0.500000
vt 0.375000 0.750000
vt 0.625000 0.750000
vt 0.375000 1.000000
vt 0.625000 1.000000
vt 0.875000 0.000000
vt 0.875000 0.250000
vt 0.125000 0.000000
vt 0.125000 0.250000
vn 0.000000 0.000000 1.000000
vn 0.000000 0.000000 1.000000
vn 0.000000 0.000000 1.000000
vn 0.000000 0.000000 1.000000
vn 0.000000 1.000000 0.000000
vn 0.000000 1.000000 0.000000
vn 0.000000 1.000000 0.000000
vn 0.000000 1.000000 0.000000
vn 0.000000 0.000000 -1.000000
vn 0.000000 0.000000 -1.000000
vn 0.000000 0.000000 -1.000000
vn 0.000000 0.000000 -1.000000
vn 0.000000 -1.000000 0.000000
vn 0.000000 -1.000000 0.000000
vn 0.000000 -1.000000 0.000000
vn 0.000000 -1.000000 0.000000
vn 1.000000 0.000000 0.000000
vn 1.000000 0.000000 0.000000
vn 1.000000 0.000000 0.000000
vn 1.000000 0.000000 0.000000
vn -1.000000 0.000000 0.000000
vn -1.000000 0.000000 0.000000
vn -1.000000 0.000000 0.000000
vn -1.000000 0.000000 0.000000
s off
g pCube8
usemtl initialShadingGroup
f 59/96/151 60/97/152 62/99/153 61/98/154
f 61/98/155 62/99/156 64/101/157 63/100/158
f 63/100/159 64/101/160 66/103/161 65/102/162
f 65/102/163 66/103/164 60/105/165 59/104/166
f 60/97/167 66/106/168 64/107/169 62/99/170
f 65/108/171 59/96/172 61/98/173 63/109/174
g default
v -0.399882 -0.414328 -0.090021
v -0.071738 -0.414328 -0.090021
v -0.399882 -0.086184 -0.090021
v -0.071738 -0.086184 -0.090021
v -0.399882 -0.086184 -0.418165
v -0.071738 -0.086184 -0.418165
v -0.399882 -0.414328 -0.418165
v -0.071738 -0.414328 -0.418165
vt 0.375000 0.000000
vt 0.625000 0.000000
vt 0.375000 0.250000
vt 0.625000 0.250000
vt 0.375000 0.500000
vt 0.625000 0.500000
vt 0.375000 0.750000
vt 0.625000 0.750000
vt 0.375000 1.000000
vt 0.625000 1.000000
vt 0.875000 0.000000
vt 0.875000 0.250000
vt 0.125000 0.000000
vt 0.125000 0.250000
vn 0.000000 0.000000 1.000000
vn 0.000000 0.000000 1.000000
vn 0.000000 0.000000 1.000000
vn 0.000000 0.000000 1.000000
vn 0.000000 1.000000 0.000000
vn 0.000000 1.000000 0.000000
vn 0.000000 1.000000 0.000000
vn 0.000000 1.000000 0.000000
vn 0.000000 0.000000 -1.000000
vn 0.000000 0.000000 -1.000000
vn 0.000000 0.000000 -1.000000
vn 0.000000 0.000000 -1.000000
vn 0.000000 -1.000000 0.000000
vn 0.000000 -1.000000 0.000000
vn 0.000000 -1.000000 0.000000
vn 0.000000 -1.000000 0.000000
vn 1.000000 0.000000 0.000000
vn 1.000000 0.000000 0.000000
vn 1.000000 0.000000 0.000000
vn 1.000000 0.000000 0.000000
vn -1.000000 0.000000 0.000000
vn -1.000000 0.000000 0.000000
vn -1.000000 0.000000 0.000000
vn -1.000000 0.000000 0.000000
s off
g pCube7
usemtl initialShadingGroup
f 67/110/175 68/111/176 70/113/177 69/112/178
f 69/112/179 70/113/180 72/115/181 71/114/182
f 71/114/183 72/115/184 74/117/185 73/116/186
f 73/116/187 74/117/188 68/119/189 67/118/190
f 68/111/191 74/120/192 72/121/193 70/113/194
f 73/122/195 67/110/196 69/112/197 71/123/198
g default
v 0.094352 -0.414328 0.418165
v 0.422496 -0.414328 0.418165
v 0.094352 -0.086184 0.418165
v 0.422496 -0.086184 0.418165
v 0.094352 -0.086184 0.090021
v 0.422496 -0.086184 0.090021
v 0.094352 -0.414328 0.090021
v 0.422496 -0.414328 0.090021
vt 0.375000 0.000000
vt 0.625000 0.000000
vt 0.375000 0.250000
vt 0.625000 0.250000
vt 0.375000 0.500000
vt 0.625000 0.500000
vt 0.375000 0.750000
vt 0.625000 0.750000
vt 0.375000 1.000000
vt 0.625000 1.000000
vt 0.875000 0.000000
vt 0.875000 0.250000
vt 0.125000 0.000000
vt 0.125000 0.250000
vn 0.000000 0.000000 1.000000
vn 0.000000 0.000000 1.000000
vn 0.000000 0.000000 1.000000
vn 0.000000 0.000000 1.000000
vn 0.000000 1.000000 0.000000
vn 0.000000 1.000000 0.000000
vn 0.000000 1.000000 0.000000
vn 0.000000 1.000000 0.000000
vn 0.000000 0.000000 -1.000000
vn 0.000000 0.000000 -1.000000
vn 0.000000 0.000000 -1.000000
vn 0.000000 0.000000 -1.000000
vn 0.000000 -1.000000 0.000000
vn 0.000000 -1.000000 0.000000
vn 0.000000 -1.000000 0.000000
vn 0.000000 -1.000000 0.000000
vn 1.000000 0.000000 0.000000
vn 1.000000 0.000000 0.000000
vn 1.000000 0.000000 0.000000
vn 1.000000 0.000000 0.000000
vn -1.000000 0.000000 0.000000
vn -1.000000 0.000000 0.000000
vn -1.000000 0.000000 0.000000
vn -1.000000 0.000000 0.000000
s off
g pCube6
usemtl initialShadingGroup
f 75/124/199 76/125/200 78/127/201 77/126/202
f 77/126/203 78/127/204 80/129/205 79/128/206
f 79/128/207 80/129/208 82/131/209 81/130/210
f 81/130/211 82/131/212 76/133/213 75/132/214
f 76/125/215 82/134/216 80/135/217 78/127/218
f 81/136/219 75/124/220 77/126/221 79/137/222
g default
v -0.395558 0.092440 0.425530
v -0.067414 0.092440 0.425530
v -0.395558 0.420584 0.425530
v -0.067414 0.420584 0.425530
v -0.395558 0.420584 0.097386
v -0.067414 0.420584 0.097386
v -0.395558 0.092440 0.097386
v -0.067414 0.092440 0.097386
vt 0.375000 0.000000
vt 0.625000 0.000000
vt 0.375000 0.250000
vt 0.625000 0.250000
vt 0.375000 0.500000
vt 0.625000 0.500000
vt 0.375000 0.750000
vt 0.625000 0.750000
vt 0.375000 1.000000
vt 0.625000 1.000000
vt 0.875000 0.000000
vt 0.875000 0.250000
vt 0.125000 0.000000
vt 0.125000 0.250000
vn 0.000000 0.000000 1.000000
vn 0.000000 0.000000 1.000000
vn 0.000000 0.000000 1.000000
vn 0.000000 0.000000 1.000000
vn 0.000000 1.000000 0.000000
vn 0.000000 1.000000 0.000000
vn 0.000000 1.000000 0.000000
vn 0.000000 1.000000 0.000000
vn 0.000000 0.000000 -1.000000
vn 0.000000 0.000000 -1.000000
vn 0.000000 0.000000 -1.000000
vn 0.000000 0.000000 -1.000000
vn 0.000000 -1.000000 0.000000
vn 0.000000 -1.000000 0.000000
vn 0.000000 -1.000000 0.000000
vn 0.000000 -1.000000 0.000000
vn 1.000000 0.000000 0.000000
vn 1.000000 0.000000 0.000000
vn 1.000000 0.000000 0.000000
vn 1.000000 0.000000 0.000000
vn -1.000000 0.000000 0.000000
vn -1.000000 0.000000 0.000000
vn -1.000000 0.000000 0.000000
vn -1.000000 0.000000 0.000000
s off
g pCube5
usemtl initialShadingGroup
f 83/138/223 84/139/224 86/141/225 85/140/226
f 85/140/227 86/141/228 88/143/229 87/142/230
f 87/142/231 88/143/232 90/145/233 89/144/234
f 89/144/235 90/145/236 84/147/237 83/146/238
f 84/139/239 90/148/240 88/149/241 86/141/242
f 89/150/243 83/138/244 85/140/245 87/151/246
